<mxfile host="Electron" modified="2024-04-08T13:51:20.623Z" agent="Mozilla/5.0 (Windows NT 10.0; Win64; x64) AppleWebKit/537.36 (KHTML, like Gecko) draw.io/24.1.0 Chrome/120.0.6099.109 Electron/28.1.0 Safari/537.36" etag="aq3ZNql67SS7yasVBNJ8" version="24.1.0" type="device">
  <diagram name="Hull culling" id="rQU22zbhcTeP1uXJsV5V">
    <mxGraphModel dx="1434" dy="836" grid="1" gridSize="10" guides="1" tooltips="1" connect="1" arrows="1" fold="1" page="1" pageScale="1" pageWidth="850" pageHeight="1100" math="0" shadow="0">
      <root>
        <mxCell id="0" />
        <mxCell id="1" parent="0" />
        <mxCell id="_J5zRcN7ngkR45Mjhe-P-4" value="" style="edgeStyle=orthogonalEdgeStyle;rounded=0;orthogonalLoop=1;jettySize=auto;html=1;" edge="1" parent="1" source="_J5zRcN7ngkR45Mjhe-P-1" target="_J5zRcN7ngkR45Mjhe-P-3">
          <mxGeometry relative="1" as="geometry" />
        </mxCell>
        <mxCell id="_J5zRcN7ngkR45Mjhe-P-1" value="Detect vertices of A inside B" style="rounded=1;whiteSpace=wrap;html=1;absoluteArcSize=1;arcSize=14;strokeWidth=2;" vertex="1" parent="1">
          <mxGeometry x="370" y="200" width="100" height="50" as="geometry" />
        </mxCell>
        <mxCell id="_J5zRcN7ngkR45Mjhe-P-7" value="" style="edgeStyle=orthogonalEdgeStyle;rounded=0;orthogonalLoop=1;jettySize=auto;html=1;" edge="1" parent="1" source="_J5zRcN7ngkR45Mjhe-P-3" target="_J5zRcN7ngkR45Mjhe-P-6">
          <mxGeometry relative="1" as="geometry" />
        </mxCell>
        <mxCell id="_J5zRcN7ngkR45Mjhe-P-3" value="Detect vertices of B inside A" style="rounded=1;whiteSpace=wrap;html=1;absoluteArcSize=1;arcSize=14;strokeWidth=2;" vertex="1" parent="1">
          <mxGeometry x="370" y="290" width="100" height="50" as="geometry" />
        </mxCell>
        <mxCell id="_J5zRcN7ngkR45Mjhe-P-11" style="edgeStyle=orthogonalEdgeStyle;rounded=0;orthogonalLoop=1;jettySize=auto;html=1;" edge="1" parent="1" source="_J5zRcN7ngkR45Mjhe-P-6" target="_J5zRcN7ngkR45Mjhe-P-10">
          <mxGeometry relative="1" as="geometry" />
        </mxCell>
        <mxCell id="_J5zRcN7ngkR45Mjhe-P-6" value="Detect intersection points between edges" style="rounded=1;whiteSpace=wrap;html=1;absoluteArcSize=1;arcSize=14;strokeWidth=2;" vertex="1" parent="1">
          <mxGeometry x="370" y="380" width="100" height="60" as="geometry" />
        </mxCell>
        <mxCell id="_J5zRcN7ngkR45Mjhe-P-8" value="Order all the vertices found so far in counterclockwise order" style="rounded=1;whiteSpace=wrap;html=1;absoluteArcSize=1;arcSize=14;strokeWidth=2;" vertex="1" parent="1">
          <mxGeometry x="220" y="590" width="100" height="90" as="geometry" />
        </mxCell>
        <mxCell id="_J5zRcN7ngkR45Mjhe-P-12" value="yes" style="edgeStyle=orthogonalEdgeStyle;rounded=0;orthogonalLoop=1;jettySize=auto;html=1;exitX=0;exitY=0.5;exitDx=0;exitDy=0;exitPerimeter=0;" edge="1" parent="1" source="_J5zRcN7ngkR45Mjhe-P-10" target="_J5zRcN7ngkR45Mjhe-P-8">
          <mxGeometry relative="1" as="geometry" />
        </mxCell>
        <mxCell id="_J5zRcN7ngkR45Mjhe-P-10" value="Found at least 3 vertices?" style="strokeWidth=2;html=1;shape=mxgraph.flowchart.decision;whiteSpace=wrap;spacingLeft=34;spacingBottom=0;align=center;spacingRight=34;" vertex="1" parent="1">
          <mxGeometry x="340" y="470" width="160" height="70" as="geometry" />
        </mxCell>
        <mxCell id="_J5zRcN7ngkR45Mjhe-P-16" value="yes" style="edgeStyle=orthogonalEdgeStyle;rounded=0;orthogonalLoop=1;jettySize=auto;html=1;exitX=0;exitY=0.5;exitDx=0;exitDy=0;exitPerimeter=0;" edge="1" parent="1" source="_J5zRcN7ngkR45Mjhe-P-13" target="_J5zRcN7ngkR45Mjhe-P-15">
          <mxGeometry relative="1" as="geometry" />
        </mxCell>
        <mxCell id="_J5zRcN7ngkR45Mjhe-P-19" value="no" style="edgeStyle=orthogonalEdgeStyle;rounded=0;orthogonalLoop=1;jettySize=auto;html=1;exitX=1;exitY=0.5;exitDx=0;exitDy=0;exitPerimeter=0;" edge="1" parent="1" source="_J5zRcN7ngkR45Mjhe-P-13" target="_J5zRcN7ngkR45Mjhe-P-17">
          <mxGeometry relative="1" as="geometry" />
        </mxCell>
        <mxCell id="_J5zRcN7ngkR45Mjhe-P-13" value="Found 0 vertices?" style="strokeWidth=2;html=1;shape=mxgraph.flowchart.decision;whiteSpace=wrap;spacingLeft=34;spacingBottom=0;align=center;spacingRight=34;" vertex="1" parent="1">
          <mxGeometry x="450" y="540" width="160" height="70" as="geometry" />
        </mxCell>
        <mxCell id="_J5zRcN7ngkR45Mjhe-P-14" value="no" style="edgeStyle=orthogonalEdgeStyle;rounded=0;orthogonalLoop=1;jettySize=auto;html=1;exitX=1;exitY=0.5;exitDx=0;exitDy=0;exitPerimeter=0;entryX=0.5;entryY=0;entryDx=0;entryDy=0;entryPerimeter=0;" edge="1" parent="1" source="_J5zRcN7ngkR45Mjhe-P-10" target="_J5zRcN7ngkR45Mjhe-P-13">
          <mxGeometry relative="1" as="geometry" />
        </mxCell>
        <mxCell id="_J5zRcN7ngkR45Mjhe-P-15" value="No overlapping between hulls" style="rounded=1;whiteSpace=wrap;html=1;absoluteArcSize=1;arcSize=14;strokeWidth=2;" vertex="1" parent="1">
          <mxGeometry x="375" y="630" width="100" height="50" as="geometry" />
        </mxCell>
        <mxCell id="_J5zRcN7ngkR45Mjhe-P-17" value="Error" style="rounded=1;whiteSpace=wrap;html=1;absoluteArcSize=1;arcSize=14;strokeWidth=2;" vertex="1" parent="1">
          <mxGeometry x="580" y="630" width="100" height="50" as="geometry" />
        </mxCell>
      </root>
    </mxGraphModel>
  </diagram>
</mxfile>
